<svg enable-background="new 0 0 128 128" viewBox="0 0 128 128" xmlns="http://www.w3.org/2000/svg" xmlns:xlink="http://www.w3.org/1999/xlink"><linearGradient id="a" gradientUnits="userSpaceOnUse" x1="64" x2="64" y1="12.25" y2="115.83"><stop offset="0" stop-color="#00bfa5"/><stop offset=".7047" stop-color="#00b29a"/><stop offset="1" stop-color="#00ab94"/></linearGradient><path d="m99.99 12h-20.01c-2.21 0-4 1.79-4 4v8c0 2.21 1.79 4 4 4h6.28c.89 0 1.34 1.08.71 1.71l-9.49 9.48c-16.85-11.4-40.15-9.24-54.55 6.49-14.74 16.09-14.54 41.22.42 57.09 16.32 17.32 43.62 17.63 60.33.93 14.48-14.47 16.18-36.86 5.12-53.2l9.49-9.48c.63-.63 1.71-.18 1.71.71v6.27c0 2.21 1.79 4 4 4h8c2.21 0 4-1.79 4-4v-32c0-2.21-1.79-4-4-4h-12.01zm-28.2 79.82c-9.83 9.83-25.83 9.83-35.66 0s-9.83-25.81 0-35.64 25.83-9.83 35.66 0 9.83 25.81 0 35.64z" fill="url(#a)"/><path d="m112 15c.55 0 1 .45 1 1v32c0 .55-.45 1-1 1h-8c-.55 0-1-.45-1-1v-6.27c0-2.21-1.8-4-4.01-4-1.06 0-2.06.42-2.82 1.17l-9.49 9.48c-1.02 1.02-1.17 2.61-.36 3.8 10.45 15.43 8.45 36.2-4.75 49.39-7.38 7.37-17.18 11.43-27.61 11.43-10.87 0-20.97-4.36-28.43-12.29-13.92-14.77-14.09-38.05-.39-53.01 7.5-8.19 17.73-12.7 28.81-12.7 7.84 0 15.39 2.31 21.84 6.67.51.35 1.1.51 1.68.51.77 0 1.54-.3 2.12-.88l9.49-9.48c1.15-1.15 1.49-2.86.87-4.36s-2.07-2.47-3.7-2.47h-6.28c-.55 0-1-.45-1-1v-8c0-.55.45-1 1-1h32.03m-58.04 87.2c7.54 0 14.63-2.93 19.95-8.25s8.25-12.4 8.25-19.94-2.93-14.62-8.25-19.94-12.41-8.25-19.95-8.25-14.63 2.93-19.95 8.25-8.25 12.4-8.25 19.94 2.93 14.62 8.25 19.94 12.41 8.25 19.95 8.25m58.04-90.19h-32.02c-2.21 0-4 1.79-4 4v8c0 2.21 1.79 4 4 4h6.28c.89 0 1.34 1.08.71 1.71l-9.49 9.48c-7.08-4.79-15.3-7.18-23.52-7.18-11.34 0-22.68 4.56-31.03 13.68-14.74 16.08-14.54 41.21.42 57.08 8.3 8.82 19.46 13.23 30.61 13.23 10.76 0 21.51-4.1 29.72-12.3 14.48-14.47 16.18-36.86 5.12-53.2l9.49-9.48c.2-.2.45-.29.7-.29.51 0 1.01.4 1.01 1v6.27c0 2.21 1.79 4 4 4h8c2.21 0 4-1.79 4-4v-32c0-2.21-1.79-4-4-4zm-58.04 87.19c-6.46 0-12.91-2.46-17.83-7.37-9.83-9.83-9.83-25.81 0-35.64 4.92-4.91 11.37-7.37 17.83-7.37s12.91 2.46 17.83 7.37c9.83 9.83 9.83 25.81 0 35.64-4.91 4.91-11.37 7.37-17.83 7.37z" fill="#424242" opacity=".2"/></svg>